<svg width="314" height="501" viewBox="0 0 314 501" fill="none" xmlns="http://www.w3.org/2000/svg">
<path d="M125.633 0.678711C108.348 0.678711 94.3828 14.6436 94.3828 31.9287C94.3828 47.6514 106.004 60.6396 121.141 62.8857C77.1953 104.976 8.44531 186.226 8.44531 281.929C8.44531 328.218 38.5234 352.534 63.1328 364.644V391.304H250.633V364.644C275.242 352.437 305.32 328.12 305.32 281.929C305.32 245.503 295.359 211.226 280.613 180.269L183.543 277.339C177.488 283.394 167.527 283.394 161.473 277.339C155.418 271.284 155.418 261.323 161.473 255.269L265.086 151.655C242.43 114.448 214.5 83.7842 192.625 62.8857C207.762 60.6396 219.383 47.6514 219.383 31.9287C219.383 14.6436 205.418 0.678711 188.133 0.678711H125.633ZM47.5078 422.554L7.07812 462.983C2.97656 467.085 0.632812 472.749 0.632812 478.608C0.632812 490.815 10.4961 500.679 22.7031 500.679H290.965C303.172 500.679 313.035 490.815 313.035 478.608C313.035 472.749 310.691 467.085 306.59 462.983L266.258 422.554H47.5078Z" fill="#292929"/>
<path d="M125.633 0.678711C108.348 0.678711 94.3828 14.6436 94.3828 31.9287C94.3828 47.6514 106.004 60.6396 121.141 62.8857C77.1953 104.976 8.44531 186.226 8.44531 281.929C8.44531 328.218 38.5234 352.534 63.1328 364.644V391.304H250.633V364.644C275.242 352.437 305.32 328.12 305.32 281.929C305.32 245.503 295.359 211.226 280.613 180.269L183.543 277.339C177.488 283.394 167.527 283.394 161.473 277.339C155.418 271.284 155.418 261.323 161.473 255.269L265.086 151.655C242.43 114.448 214.5 83.7842 192.625 62.8857C207.762 60.6396 219.383 47.6514 219.383 31.9287C219.383 14.6436 205.418 0.678711 188.133 0.678711H125.633ZM47.5078 422.554L7.07812 462.983C2.97656 467.085 0.632812 472.749 0.632812 478.608C0.632812 490.815 10.4961 500.679 22.7031 500.679H290.965C303.172 500.679 313.035 490.815 313.035 478.608C313.035 472.749 310.691 467.085 306.59 462.983L266.258 422.554H47.5078Z" fill="url(#paint0_linear_16_31)" fill-opacity="0.2"/>
<defs>
<linearGradient id="paint0_linear_16_31" x1="313" y1="1" x2="1.00003" y2="501" gradientUnits="userSpaceOnUse">
<stop/>
<stop offset="0.53" stop-color="#565352"/>
</linearGradient>
</defs>
</svg>
