<svg width="448" height="501" viewBox="0 0 448 501" fill="none" xmlns="http://www.w3.org/2000/svg">
<path d="M401.101 500.679H45.9034V429.639H401.101V500.679ZM388.906 373.838H58.0985C62.7356 385.602 65.396 398.052 65.9721 410.683H381.032C381.609 398.052 384.269 385.602 388.906 373.838ZM223.502 88.4244C212.273 88.4244 201.504 92.8852 193.564 100.825C185.623 108.766 181.163 119.535 181.163 130.764C181.163 190.153 223.502 248.382 223.502 248.382C223.502 248.382 265.842 190.153 265.842 130.764C265.842 119.535 261.381 108.766 253.441 100.825C245.501 92.8852 234.731 88.4244 223.502 88.4244ZM232.974 70.2146V47.3162H254.712V28.3723H232.974V0.678711H214.03V28.3723H192.292V47.3162H214.03V70.262C220.305 69.2671 226.695 69.2511 232.974 70.2146ZM329.635 131.024C314.138 131.005 298.792 134.068 284.49 140.035C281.589 186.509 260.049 230.414 232.974 267.539V354.87H398.733C418.352 323.909 447.016 304.657 447.016 248.311C446.978 184.406 393.54 131.006 329.635 131.013V131.024ZM162.503 140.035C87.8926 108.993 0.0352898 166.008 0 248.382C0 304.681 28.6645 323.944 48.2832 354.941H214.03V267.539C186.985 230.366 165.415 186.548 162.503 140.035Z" fill="#292929"/>
<path d="M401.101 500.679H45.9034V429.639H401.101V500.679ZM388.906 373.838H58.0985C62.7356 385.602 65.396 398.052 65.9721 410.683H381.032C381.609 398.052 384.269 385.602 388.906 373.838ZM223.502 88.4244C212.273 88.4244 201.504 92.8852 193.564 100.825C185.623 108.766 181.163 119.535 181.163 130.764C181.163 190.153 223.502 248.382 223.502 248.382C223.502 248.382 265.842 190.153 265.842 130.764C265.842 119.535 261.381 108.766 253.441 100.825C245.501 92.8852 234.731 88.4244 223.502 88.4244ZM232.974 70.2146V47.3162H254.712V28.3723H232.974V0.678711H214.03V28.3723H192.292V47.3162H214.03V70.262C220.305 69.2671 226.695 69.2511 232.974 70.2146ZM329.635 131.024C314.138 131.005 298.792 134.068 284.49 140.035C281.589 186.509 260.049 230.414 232.974 267.539V354.87H398.733C418.352 323.909 447.016 304.657 447.016 248.311C446.978 184.406 393.54 131.006 329.635 131.013V131.024ZM162.503 140.035C87.8926 108.993 0.0352898 166.008 0 248.382C0 304.681 28.6645 323.944 48.2832 354.941H214.03V267.539C186.985 230.366 165.415 186.548 162.503 140.035Z" fill="url(#paint0_linear_24_4)" fill-opacity="0.2"/>
<defs>
<linearGradient id="paint0_linear_24_4" x1="432" y1="51.5" x2="46.4999" y2="501" gradientUnits="userSpaceOnUse">
<stop/>
<stop offset="0.63" stop-color="#565352"/>
</linearGradient>
</defs>
</svg>
