<svg width="500" height="501" viewBox="0 0 500 501" fill="none" xmlns="http://www.w3.org/2000/svg">
<path d="M249.584 49.2937C411.791 64.433 506.411 173.923 498.977 500.769H139.96C139.96 360.866 311.763 398.984 279.728 173.922" fill="#292929"/>
<path d="M249.584 49.2937C411.791 64.433 506.411 173.923 498.977 500.769H139.96C139.96 360.866 311.763 398.984 279.728 173.922" fill="url(#paint0_linear_27_8)"/>
<path d="M279.707 173.927C285.789 219.48 193.061 288.013 155.078 313.83C108.038 344.244 111.012 380.741 77.624 376.145C60.8627 360.87 98.8461 328.97 77.624 328.97C68.2971 328.97 71.4061 336.269 71.2709 344.379C71.208 347.367 70.3476 350.283 68.7791 352.825C67.2105 355.368 64.9907 357.446 62.3496 358.843C46.8048 358.843 0.0351562 374.658 0.0351562 297.069C0.0351562 266.655 60.7275 151.353 92.7633 110.126C102.361 97.69 121.69 81.199 123.177 56.057C114.996 51.2592 104.885 14.1363 115.996 2.25894C131.385 -9.86373 162.647 47.9467 162.647 47.9467H193.061C193.061 47.9467 207.389 0.366041 232.667 0.771557C241.996 2.25921 242.455 14.1213 249.584 49.2937L279.707 173.927Z" fill="#292929"/>
<path d="M279.707 173.927C285.789 219.48 193.061 288.013 155.078 313.83C108.038 344.244 111.012 380.741 77.624 376.145C60.8627 360.87 98.8461 328.97 77.624 328.97C68.2971 328.97 71.4061 336.269 71.2709 344.379C71.208 347.367 70.3476 350.283 68.7791 352.825C67.2105 355.368 64.9907 357.446 62.3496 358.843C46.8048 358.843 0.0351562 374.658 0.0351562 297.069C0.0351562 266.655 60.7275 151.353 92.7633 110.126C102.361 97.69 121.69 81.199 123.177 56.057C114.996 51.2592 104.885 14.1363 115.996 2.25894C131.385 -9.86373 162.647 47.9467 162.647 47.9467H193.061C193.061 47.9467 207.389 0.366041 232.667 0.771557C241.996 2.25921 242.455 14.1213 249.584 49.2937L279.707 173.927Z" fill="url(#paint1_linear_27_8)"/>
<path d="M55.7407 291.257C55.7407 293.262 55.1461 295.222 54.0321 296.889C52.9182 298.557 51.3348 299.856 49.4824 300.623C47.6299 301.391 45.5915 301.591 43.625 301.2C41.6584 300.809 39.852 299.843 38.4342 298.426C37.0164 297.008 36.0508 295.201 35.6596 293.235C35.2685 291.268 35.4692 289.23 36.2366 287.377C37.0039 285.525 38.3033 283.942 39.9704 282.828C41.6376 281.714 43.5977 281.119 45.6028 281.119C48.2806 281.154 50.8389 282.233 52.7326 284.127C54.6263 286.021 55.7057 288.579 55.7407 291.257Z" fill="#EEEED2"/>
<path d="M131.239 178.632C130.57 179.209 129.907 179.781 129.253 180.348C128.863 177.225 128.526 173.793 128.498 171.185C128.558 171.088 128.665 170.932 128.848 170.713C129.392 170.059 130.295 169.223 131.579 168.239C134.13 166.284 137.642 164.151 141.302 162.139C144.933 160.142 148.579 158.335 151.328 157.022C151.742 156.824 152.134 156.638 152.503 156.465C152.496 156.481 152.49 156.498 152.483 156.515C151.667 158.585 149.515 161.457 146.183 164.94C141.829 169.491 136.363 174.208 131.239 178.632Z" stroke="white" stroke-width="8"/>
<defs>
<linearGradient id="paint0_linear_27_8" x1="499.676" y1="0.999967" x2="-96.2682" y2="323.957" gradientUnits="userSpaceOnUse">
<stop stop-opacity="0.2"/>
<stop offset="1" stop-color="#565352"/>
</linearGradient>
<linearGradient id="paint1_linear_27_8" x1="499.676" y1="0.999967" x2="-96.2682" y2="323.957" gradientUnits="userSpaceOnUse">
<stop stop-opacity="0.2"/>
<stop offset="1" stop-color="#565352"/>
</linearGradient>
</defs>
</svg>
