<svg width="336" height="506" viewBox="0 0 336 506" fill="none" xmlns="http://www.w3.org/2000/svg">
<path d="M167.865 0.0017933C91.318 -0.495312 60.9146 102.488 120.573 145.189L62.4482 183.73C62.4482 196.689 65.4482 206.939 71.4899 218.084H122.656C116.446 326.765 -0.0416765 361.467 0.38594 467.479C0.38594 517.974 335.301 517.991 335.301 467.479C335.301 360.048 218.457 326.711 212.719 218.084H263.927C269.968 206.939 272.968 196.689 272.968 183.73L214.844 145.48C274.301 102.655 244.401 -0.0146932 167.865 0.0017933Z" fill="#292929"/>
<path d="M167.865 0.0017933C91.318 -0.495312 60.9146 102.488 120.573 145.189L62.4482 183.73C62.4482 196.689 65.4482 206.939 71.4899 218.084H122.656C116.446 326.765 -0.0416765 361.467 0.38594 467.479C0.38594 517.974 335.301 517.991 335.301 467.479C335.301 360.048 218.457 326.711 212.719 218.084H263.927C269.968 206.939 272.968 196.689 272.968 183.73L214.844 145.48C274.301 102.655 244.401 -0.0146932 167.865 0.0017933Z" fill="url(#paint0_linear_21_79)"/>
<defs>
<linearGradient id="paint0_linear_21_79" x1="461" y1="104" x2="5.05987e-05" y2="505" gradientUnits="userSpaceOnUse">
<stop stop-opacity="0.8"/>
<stop offset="1" stop-color="#565352"/>
</linearGradient>
</defs>
</svg>
