<svg width="568" height="501" viewBox="0 0 568 501" fill="none" xmlns="http://www.w3.org/2000/svg">
<path d="M567.382 114.888C567.392 120.198 566.081 125.428 563.567 130.106C561.053 134.783 557.415 138.762 552.98 141.684C548.545 144.606 543.454 146.379 538.163 146.843C532.873 147.307 527.55 146.447 522.675 144.342L442.904 336.77H124.129L44.422 144.432C37.2188 147.455 29.1588 147.74 21.7599 145.234C14.3609 142.728 8.13362 137.603 4.25071 130.824C0.367792 124.046 -0.902787 116.081 0.678253 108.431C2.25929 100.781 6.58284 93.9726 12.8347 89.2886C19.0865 84.6045 26.8352 82.3679 34.6215 82.9998C42.4078 83.6318 49.6944 87.0887 55.1091 92.7197C60.5237 98.3506 63.6928 105.767 64.0194 113.572C64.3461 121.377 61.8078 129.032 56.8825 135.096L168.298 226.277L195.089 64.405C187.547 63.0665 180.735 59.0684 175.889 53.1363C171.043 47.2043 168.484 39.7315 168.677 32.0741C168.871 24.4168 171.803 17.0825 176.942 11.4024C182.081 5.7223 189.086 2.07284 196.685 1.1164C204.285 0.159962 211.976 1.95993 218.362 6.18963C224.748 10.4193 229.406 16.7984 231.491 24.1691C233.575 31.5398 232.948 39.4135 229.723 46.3613C226.498 53.309 220.889 58.8703 213.914 62.0358L283.465 211.87L353.157 61.6516C346.225 58.382 340.695 52.7338 337.574 45.7334C334.452 38.733 333.946 30.845 336.146 23.5029C338.347 16.1607 343.108 9.85167 349.566 5.72227C356.023 1.59287 363.748 -0.0828242 371.336 0.999692C378.924 2.08221 385.872 5.85109 390.917 11.6214C395.962 17.3918 398.769 24.7807 398.829 32.4453C398.889 40.1099 396.197 47.5416 391.242 53.3898C386.288 59.2381 379.399 63.1147 371.829 64.3153L398.633 226.213L510.381 134.904C507.182 130.911 504.986 126.21 503.978 121.194C502.97 116.178 503.178 110.993 504.586 106.074C505.994 101.155 508.561 96.6456 512.07 92.9228C515.58 89.2001 519.931 86.3726 524.758 84.6775C529.586 82.9823 534.749 82.4688 539.816 83.1799C544.883 83.891 549.705 85.8061 553.879 88.7646C558.053 91.7232 561.458 95.639 563.807 100.184C566.156 104.729 567.382 109.771 567.382 114.888ZM475.612 423.841H91.4213V500.679H475.612V423.841ZM440.074 357.248H127.317V403.35H440.074V357.248Z" fill="#292929"/>
<path d="M567.382 114.888C567.392 120.198 566.081 125.428 563.567 130.106C561.053 134.783 557.415 138.762 552.98 141.684C548.545 144.606 543.454 146.379 538.163 146.843C532.873 147.307 527.55 146.447 522.675 144.342L442.904 336.77H124.129L44.422 144.432C37.2188 147.455 29.1588 147.74 21.7599 145.234C14.3609 142.728 8.13362 137.603 4.25071 130.824C0.367792 124.046 -0.902787 116.081 0.678253 108.431C2.25929 100.781 6.58284 93.9726 12.8347 89.2886C19.0865 84.6045 26.8352 82.3679 34.6215 82.9998C42.4078 83.6318 49.6944 87.0887 55.1091 92.7197C60.5237 98.3506 63.6928 105.767 64.0194 113.572C64.3461 121.377 61.8078 129.032 56.8825 135.096L168.298 226.277L195.089 64.405C187.547 63.0665 180.735 59.0684 175.889 53.1363C171.043 47.2043 168.484 39.7315 168.677 32.0741C168.871 24.4168 171.803 17.0825 176.942 11.4024C182.081 5.7223 189.086 2.07284 196.685 1.1164C204.285 0.159962 211.976 1.95993 218.362 6.18963C224.748 10.4193 229.406 16.7984 231.491 24.1691C233.575 31.5398 232.948 39.4135 229.723 46.3613C226.498 53.309 220.889 58.8703 213.914 62.0358L283.465 211.87L353.157 61.6516C346.225 58.382 340.695 52.7338 337.574 45.7334C334.452 38.733 333.946 30.845 336.146 23.5029C338.347 16.1607 343.108 9.85167 349.566 5.72227C356.023 1.59287 363.748 -0.0828242 371.336 0.999692C378.924 2.08221 385.872 5.85109 390.917 11.6214C395.962 17.3918 398.769 24.7807 398.829 32.4453C398.889 40.1099 396.197 47.5416 391.242 53.3898C386.288 59.2381 379.399 63.1147 371.829 64.3153L398.633 226.213L510.381 134.904C507.182 130.911 504.986 126.21 503.978 121.194C502.97 116.178 503.178 110.993 504.586 106.074C505.994 101.155 508.561 96.6456 512.07 92.9228C515.58 89.2001 519.931 86.3726 524.758 84.6775C529.586 82.9823 534.749 82.4688 539.816 83.1799C544.883 83.891 549.705 85.8061 553.879 88.7646C558.053 91.7232 561.458 95.639 563.807 100.184C566.156 104.729 567.382 109.771 567.382 114.888ZM475.612 423.841H91.4213V500.679H475.612V423.841ZM440.074 357.248H127.317V403.35H440.074V357.248Z" fill="url(#paint0_linear_16_29)" fill-opacity="0.2"/>
<defs>
<linearGradient id="paint0_linear_16_29" x1="567" y1="1.00002" x2="70.4999" y2="501" gradientUnits="userSpaceOnUse">
<stop/>
<stop offset="1" stop-color="#737171"/>
</linearGradient>
</defs>
</svg>
