<svg width="407" height="501" viewBox="0 0 407 501" fill="none" xmlns="http://www.w3.org/2000/svg">
<path d="M16.0078 167.345V17.3454C16.0078 8.17871 23.0391 0.678711 31.6328 0.678711H94.1328C102.727 0.678711 109.758 8.17871 109.758 17.3454V59.012C109.758 63.5954 113.273 67.3454 117.57 67.3454H148.82C153.117 67.3454 156.633 63.5954 156.633 59.012V17.3454C156.633 8.17871 163.664 0.678711 172.258 0.678711H234.758C243.352 0.678711 250.383 8.17871 250.383 17.3454V59.012C250.383 63.5954 253.898 67.3454 258.195 67.3454H289.445C293.742 67.3454 297.258 63.5954 297.258 59.012V17.3454C297.258 8.17871 304.289 0.678711 312.883 0.678711H375.383C383.977 0.678711 391.008 8.17871 391.008 17.3454V167.345C391.008 177.866 386.418 187.762 378.508 194.012L328.508 234.012L344.133 384.012H62.8828L78.5078 234.012L28.5078 194.012C20.5977 187.762 16.0078 177.866 16.0078 167.345ZM187.883 267.345H219.133C227.727 267.345 234.758 259.845 234.758 250.679V200.679C234.758 182.241 220.793 167.345 203.508 167.345C186.223 167.345 172.258 182.241 172.258 200.679V250.679C172.258 259.845 179.289 267.345 187.883 267.345ZM6.82813 460.47L47.2578 417.345H359.758L400.187 460.47C404.289 464.845 406.633 470.887 406.633 477.137C406.633 490.158 396.77 500.679 384.562 500.679H22.4531C10.2461 500.679 0.382812 490.158 0.382812 477.137C0.382812 470.887 2.72656 464.845 6.82813 460.47Z" fill="#292929"/>
<path d="M16.0078 167.345V17.3454C16.0078 8.17871 23.0391 0.678711 31.6328 0.678711H94.1328C102.727 0.678711 109.758 8.17871 109.758 17.3454V59.012C109.758 63.5954 113.273 67.3454 117.57 67.3454H148.82C153.117 67.3454 156.633 63.5954 156.633 59.012V17.3454C156.633 8.17871 163.664 0.678711 172.258 0.678711H234.758C243.352 0.678711 250.383 8.17871 250.383 17.3454V59.012C250.383 63.5954 253.898 67.3454 258.195 67.3454H289.445C293.742 67.3454 297.258 63.5954 297.258 59.012V17.3454C297.258 8.17871 304.289 0.678711 312.883 0.678711H375.383C383.977 0.678711 391.008 8.17871 391.008 17.3454V167.345C391.008 177.866 386.418 187.762 378.508 194.012L328.508 234.012L344.133 384.012H62.8828L78.5078 234.012L28.5078 194.012C20.5977 187.762 16.0078 177.866 16.0078 167.345ZM187.883 267.345H219.133C227.727 267.345 234.758 259.845 234.758 250.679V200.679C234.758 182.241 220.793 167.345 203.508 167.345C186.223 167.345 172.258 182.241 172.258 200.679V250.679C172.258 259.845 179.289 267.345 187.883 267.345ZM6.82813 460.47L47.2578 417.345H359.758L400.187 460.47C404.289 464.845 406.633 470.887 406.633 477.137C406.633 490.158 396.77 500.679 384.562 500.679H22.4531C10.2461 500.679 0.382812 490.158 0.382812 477.137C0.382812 470.887 2.72656 464.845 6.82813 460.47Z" fill="url(#paint0_linear_16_38)" fill-opacity="0.2"/>
<defs>
<linearGradient id="paint0_linear_16_38" x1="407" y1="0.999981" x2="-9.52262e-06" y2="501" gradientUnits="userSpaceOnUse">
<stop/>
<stop offset="0.635" stop-color="#565352"/>
</linearGradient>
</defs>
</svg>
