<svg width="313" height="501" viewBox="0 0 313 501" fill="none" xmlns="http://www.w3.org/2000/svg">
<path d="M123.657 65.7745L129.553 60.1274L121.478 58.9291C108.259 56.9676 98.1328 45.6259 98.1328 31.9287C98.1328 16.8527 110.307 4.67871 125.383 4.67871H187.883C202.959 4.67871 215.133 16.8527 215.133 31.9287C215.133 45.6259 205.007 56.9676 191.788 58.9291L183.699 60.1293L189.612 65.778C210.796 86.0168 237.657 115.444 259.774 151.06L158.394 252.44C150.777 260.057 150.777 272.551 158.394 280.167C166.011 287.784 178.505 287.784 186.121 280.167L279.147 187.142C292.371 216.323 301.07 248.233 301.07 281.929C301.07 325.949 272.556 349.18 248.605 361.06L246.383 362.163V364.644V387.304H66.8828V364.644V362.154L64.6488 361.055C40.7133 349.277 12.1953 326.049 12.1953 281.929C12.1953 187.993 79.8192 107.762 123.657 65.7745ZM303.508 465.808L303.511 465.812C306.858 469.158 308.785 473.803 308.785 478.608C308.785 488.606 300.713 496.679 290.715 496.679H22.4531C12.4552 496.679 4.38281 488.606 4.38281 478.608C4.38281 473.803 6.3099 469.158 9.65655 465.812L48.9147 426.554H264.348L303.508 465.808Z" fill="#EEEED2" stroke="black" stroke-width="8"/>
</svg>
