<svg width="448" height="501" viewBox="0 0 448 501" fill="none" xmlns="http://www.w3.org/2000/svg">
<path d="M232.974 43.3162H228.974V47.3162V65.7203C225.332 65.4232 221.671 65.4317 218.03 65.7457V47.3162V43.3162H214.03H196.292V32.3723H214.03H218.03V28.3723V4.67871H228.974V28.3723V32.3723H232.974H250.712V43.3162H232.974ZM329.63 135.024L331.414 135.027C392.321 136 442.979 187.211 443.016 248.313C443.016 289.663 427.47 309.77 411.092 330.951C406.188 337.295 401.209 343.734 396.55 350.87H236.974V268.839C263.456 232.262 284.77 188.935 288.307 142.805C301.465 137.648 315.483 135.006 329.63 135.024ZM49.9034 496.679V433.639H397.101V496.679H49.9034ZM69.7321 406.683C68.9662 396.858 66.98 387.168 63.8213 377.838H383.183C380.025 387.168 378.038 396.858 377.272 406.683H69.7321ZM223.502 241.283C222.583 239.884 221.497 238.195 220.284 236.244C216.374 229.952 211.154 220.944 205.936 210.108C195.465 188.362 185.163 159.591 185.163 130.764C185.163 120.596 189.202 110.844 196.392 103.654C203.582 96.4637 213.334 92.4244 223.502 92.4244C233.671 92.4244 243.422 96.4637 250.612 103.654C257.802 110.844 261.842 120.596 261.842 130.764C261.842 159.591 251.54 188.362 241.068 210.108C235.85 220.944 230.631 229.952 226.72 236.244C225.508 238.195 224.422 239.884 223.502 241.283ZM50.4675 350.941C45.8015 343.786 40.8139 337.33 35.9018 330.972C19.5321 309.784 4 289.679 4 248.382C4.03369 169.741 87.1721 114.93 158.687 142.809C162.236 188.976 183.581 232.22 210.03 268.836V350.941H50.4675Z" fill="#EEEED2" stroke="black" stroke-width="8"/>
</svg>

