<svg width="500" height="501" viewBox="0 0 500 501" fill="none" xmlns="http://www.w3.org/2000/svg">
<mask id="path-1-inside-1_16_71" fill="white">
<path d="M249.561 49.208C411.766 64.3471 506.385 173.835 498.951 500.678H139.937C139.937 360.777 311.739 398.895 279.704 173.835"/>
<path d="M279.703 173.834C285.786 219.387 193.059 287.918 155.076 313.736C108.037 344.149 111.01 380.645 77.6232 376.049C60.862 360.775 98.845 328.875 77.6232 328.875C68.2964 328.875 71.4053 336.174 71.2701 344.284C71.2072 347.271 70.3469 350.187 68.7783 352.73C67.2098 355.273 64.99 357.351 62.3489 358.748C46.8042 358.748 0.0351562 374.563 0.0351562 296.975C0.0351562 266.561 60.7268 151.261 92.7623 110.033C102.359 97.5977 121.689 81.1069 123.176 55.9651C112.497 40.6909 102.63 19.469 115.606 8.79056C135.476 -8.10579 162.646 47.8549 162.646 47.8549H193.059C193.059 47.8549 207.387 0.2748 232.664 0.680312C249.56 0.815483 249.561 49.208 249.561 49.208"/>
<path d="M151.861 168.074C151.861 168.074 150 157.128 150 150.678C150 144.228 179.758 131.091 179.758 131.091C190.5 137.178 164.5 156.532 151.861 168.074Z"/>
</mask>
<path d="M249.561 49.208C411.766 64.3471 506.385 173.835 498.951 500.678H139.937C139.937 360.777 311.739 398.895 279.704 173.835" fill="#EEEED2"/>
<path d="M279.703 173.834C285.786 219.387 193.059 287.918 155.076 313.736C108.037 344.149 111.01 380.645 77.6232 376.049C60.862 360.775 98.845 328.875 77.6232 328.875C68.2964 328.875 71.4053 336.174 71.2701 344.284C71.2072 347.271 70.3469 350.187 68.7783 352.73C67.2098 355.273 64.99 357.351 62.3489 358.748C46.8042 358.748 0.0351562 374.563 0.0351562 296.975C0.0351562 266.561 60.7268 151.261 92.7623 110.033C102.359 97.5977 121.689 81.1069 123.176 55.9651C112.497 40.6909 102.63 19.469 115.606 8.79056C135.476 -8.10579 162.646 47.8549 162.646 47.8549H193.059C193.059 47.8549 207.387 0.2748 232.664 0.680312C249.56 0.815483 249.561 49.208 249.561 49.208" fill="#EEEED2"/>
<path d="M151.861 168.074C151.861 168.074 150 157.128 150 150.678C150 144.228 179.758 131.091 179.758 131.091C190.5 137.178 164.5 156.532 151.861 168.074Z" fill="black"/>
<path d="M249.561 49.208L241.561 49.2081L241.561 56.4961L248.817 57.1734L249.561 49.208ZM498.951 500.678V508.678C503.298 508.678 506.85 505.207 506.949 500.86L498.951 500.678ZM139.937 500.678H131.937C131.937 505.097 135.519 508.678 139.937 508.678V500.678ZM287.624 172.708C287.002 168.334 282.951 165.293 278.577 165.915C274.202 166.538 271.161 170.589 271.784 174.963L287.624 172.708ZM287.633 172.775C287.048 168.396 283.024 165.32 278.645 165.904C274.265 166.489 271.189 170.513 271.774 174.893L287.633 172.775ZM155.076 313.736L159.42 320.454C159.471 320.421 159.522 320.387 159.573 320.352L155.076 313.736ZM77.6232 376.049L72.2347 381.963C73.4307 383.052 74.9292 383.754 76.5322 383.975L77.6232 376.049ZM71.2701 344.284L79.2684 344.453C79.2686 344.441 79.2688 344.429 79.269 344.418L71.2701 344.284ZM62.3489 358.748L62.3489 366.748C63.6526 366.748 64.9366 366.429 66.089 365.819L62.3489 358.748ZM92.7623 110.033L99.0793 114.942C99.0848 114.935 99.0902 114.928 99.0956 114.921L92.7623 110.033ZM123.176 55.9651L131.162 56.4374C131.268 54.6392 130.764 52.8577 129.732 51.3813L123.176 55.9651ZM115.606 8.79056L120.69 14.9679C120.723 14.9405 120.756 14.9129 120.789 14.885L115.606 8.79056ZM162.646 47.8549L155.449 51.3489C156.787 54.1051 159.582 55.8549 162.646 55.8549V47.8549ZM193.059 47.8549V55.8549C196.589 55.8549 199.701 53.5415 200.719 50.1617L193.059 47.8549ZM232.664 0.680312L232.536 8.67928C232.557 8.67963 232.579 8.67988 232.6 8.68006L232.664 0.680312ZM151.861 168.074L143.975 169.415L146.432 183.865L157.256 173.981L151.861 168.074ZM179.758 131.091L183.702 124.131L180.205 122.149L176.527 123.772L179.758 131.091ZM248.817 57.1734C328.043 64.5678 389.666 94.7525 431.051 162.236C472.837 230.375 494.659 337.572 490.953 500.496L506.949 500.86C510.677 336.942 488.906 225.973 444.69 153.872C400.073 81.1163 333.283 48.9873 250.304 41.2426L248.817 57.1734ZM498.951 492.678H139.937V508.678H498.951V492.678ZM147.937 500.678C147.937 435.053 187.103 412.282 227.272 375.059C247.16 356.629 266.624 334.934 278.85 303.042C291.064 271.183 295.769 229.925 287.624 172.708L271.784 174.963C279.657 230.275 274.9 268.649 263.911 297.314C252.934 325.944 235.454 345.663 216.396 363.323C178.672 398.281 131.937 426.402 131.937 500.678H147.937ZM271.774 174.893C272.921 183.484 269.462 194.313 261.391 206.982C253.443 219.457 241.739 232.598 228.377 245.411C201.684 271.009 169.432 294.304 150.579 307.119L159.573 320.352C178.703 307.35 211.806 283.47 239.451 256.96C253.259 243.719 265.97 229.572 274.885 215.579C283.676 201.78 289.527 186.96 287.633 172.775L271.774 174.893ZM150.732 307.018C125.819 323.125 113.991 341.067 104.842 353.206C100.166 359.409 96.7045 363.379 92.9263 365.763C89.5811 367.874 85.4574 369.052 78.7141 368.124L76.5322 383.975C86.4825 385.344 94.5073 383.684 101.465 379.294C107.989 375.178 112.984 368.984 117.618 362.836C127.089 350.272 137.293 334.76 159.42 320.454L150.732 307.018ZM83.0117 370.136C81.4798 368.74 80.8386 367.019 81.4235 363.573C82.0773 359.722 84.0589 355.295 86.5071 350.198C87.6406 347.838 88.9135 345.242 89.9094 342.863C90.8682 340.572 91.9026 337.734 92.1814 334.874C92.4757 331.854 92.0002 327.514 88.3137 324.27C85.0828 321.427 80.9231 320.875 77.6232 320.875V336.875C79.6286 336.875 78.9242 337.32 77.7437 336.281C76.1074 334.841 76.2772 333.113 76.2568 333.322C76.2208 333.691 75.9806 334.701 75.15 336.685C74.3565 338.581 73.3251 340.688 72.0847 343.27C69.785 348.058 66.7399 354.47 65.6492 360.896C64.4896 367.727 65.3859 375.721 72.2347 381.963L83.0117 370.136ZM77.6232 320.875C74.42 320.875 70.7691 321.474 67.7425 323.875C64.5376 326.418 63.4473 329.837 63.0802 332.407C62.7395 334.792 62.908 337.289 63.0275 339.009C63.1667 341.015 63.2978 342.557 63.2713 344.151L79.269 344.418C79.3101 341.956 79.1032 339.545 78.989 337.901C78.855 335.972 78.8546 335.123 78.9194 334.67C78.9578 334.401 78.8475 335.489 77.687 336.409C76.705 337.188 76.1629 336.875 77.6232 336.875V320.875ZM63.2719 344.116C63.239 345.677 62.7893 347.201 61.9694 348.53L75.5872 356.93C77.9044 353.174 79.1753 348.866 79.2684 344.453L63.2719 344.116ZM61.9694 348.53C61.1495 349.86 59.9892 350.946 58.6087 351.676L66.089 365.819C69.9908 363.756 73.27 360.687 75.5872 356.93L61.9694 348.53ZM62.3489 350.748C59.9095 350.748 57.0185 351.051 54.4002 351.317C51.6107 351.6 48.7366 351.889 45.7256 352.013C39.664 352.263 33.7193 351.796 28.4689 349.584C19.1763 345.669 8.03516 334.369 8.03516 296.975H-7.96484C-7.96484 337.168 4.2785 356.755 22.2567 364.329C30.6416 367.862 39.3037 368.291 46.3833 368C49.9428 367.853 53.2729 367.513 56.0164 367.235C58.9312 366.939 60.9021 366.748 62.3489 366.748V350.748ZM8.03516 296.975C8.03516 294.275 8.74818 289.984 10.4087 284.06C12.0334 278.264 14.4277 271.375 17.4631 263.661C23.531 248.242 32.0007 229.932 41.519 211.18C60.6157 173.559 83.527 134.957 99.0793 114.942L86.4452 105.125C69.9621 126.337 46.5098 165.999 27.2518 203.938C17.5928 222.967 8.88731 241.761 2.57447 257.802C-0.580572 265.82 -3.17807 273.25 -4.99755 279.742C-6.78125 286.105 -7.96484 292.07 -7.96484 296.975H8.03516ZM99.0956 114.921C101.317 112.043 104.077 108.961 107.409 105.104C110.635 101.368 114.206 97.1151 117.549 92.3736C124.249 82.8702 130.298 71.0348 131.162 56.4374L115.19 55.4929C114.566 66.0373 110.208 75.0181 104.472 83.1545C101.597 87.233 98.4434 91.0055 95.2996 94.6454C92.2616 98.1629 89.0066 101.806 86.429 105.146L99.0956 114.921ZM129.732 51.3813C124.616 44.0626 120.104 35.8634 118.272 28.6781C116.441 21.4963 117.672 17.4512 120.69 14.9679L110.523 2.61326C100.564 10.8084 100.24 22.7135 102.768 32.6307C105.296 42.5445 111.057 52.5934 116.619 60.549L129.732 51.3813ZM120.789 14.885C122.01 13.8467 122.904 13.6364 123.595 13.6137C124.432 13.5862 125.719 13.8284 127.552 14.8132C131.399 16.8806 135.828 21.22 140.272 26.9105C144.589 32.4387 148.395 38.5506 151.15 43.3552C152.518 45.7407 153.607 47.7666 154.348 49.186C154.718 49.8951 155.001 50.4507 155.187 50.822C155.28 51.0076 155.349 51.1469 155.393 51.236C155.415 51.2806 155.431 51.3126 155.44 51.3316C155.445 51.3411 155.448 51.3473 155.45 51.3502C155.45 51.3517 155.451 51.3523 155.45 51.3521C155.45 51.352 155.45 51.3512 155.45 51.3511C155.449 51.3501 155.449 51.3489 162.646 47.8549C169.842 44.3609 169.841 44.3592 169.841 44.3574C169.84 44.3565 169.839 44.3544 169.838 44.3526C169.836 44.349 169.834 44.3445 169.832 44.3392C169.826 44.3286 169.82 44.3145 169.811 44.2972C169.794 44.2625 169.771 44.2145 169.741 44.1537C169.681 44.0322 169.595 43.8593 169.484 43.6391C169.263 43.1989 168.942 42.5688 168.531 41.7806C167.709 40.2057 166.519 37.9917 165.029 35.3949C162.07 30.2349 157.841 23.4126 152.882 17.0627C148.05 10.8751 141.961 4.3924 135.126 0.719227C131.617 -1.16629 127.521 -2.52389 123.07 -2.37769C118.472 -2.22668 114.17 -0.489709 110.424 2.69606L120.789 14.885ZM162.646 55.8549H193.059V39.8549H162.646V55.8549ZM193.059 47.8549C200.719 50.1617 200.719 50.1633 200.718 50.1648C200.718 50.165 200.718 50.1663 200.718 50.1668C200.717 50.1679 200.717 50.1682 200.717 50.1677C200.718 50.1669 200.719 50.1633 200.721 50.1569C200.725 50.1441 200.732 50.1201 200.743 50.0855C200.764 50.0161 200.799 49.9038 200.848 49.7515C200.945 49.4468 201.096 48.9825 201.3 48.3816C201.708 47.1787 202.326 45.4357 203.145 43.3351C204.794 39.1102 207.216 33.5539 210.335 28.0729C213.489 22.5322 217.152 17.4338 221.161 13.8293C225.146 10.2464 228.908 8.62108 232.536 8.67928L232.792 -7.31866C223.782 -7.46321 216.274 -3.29312 210.463 1.93123C204.677 7.13393 200.018 13.8546 196.43 20.1582C192.808 26.5215 190.068 32.8349 188.24 37.5186C187.322 39.8723 186.622 41.8433 186.148 43.2408C185.911 43.9402 185.729 44.4978 185.604 44.8898C185.542 45.0859 185.493 45.2407 185.459 45.3514C185.442 45.4067 185.428 45.451 185.418 45.4839C185.413 45.5004 185.409 45.514 185.406 45.5247C185.404 45.5301 185.403 45.5347 185.402 45.5386C185.401 45.5406 185.4 45.5429 185.4 45.5439C185.399 45.5461 185.399 45.5481 193.059 47.8549ZM232.6 8.68006C232.628 8.68028 232.743 8.63892 233.145 8.97134C233.665 9.4009 234.45 10.3139 235.339 12.0193C237.145 15.4828 238.559 20.5864 239.567 26.3689C240.553 32.0202 241.056 37.7457 241.31 42.1092C241.436 44.2774 241.499 46.0788 241.53 47.3279C241.546 47.9518 241.554 48.4362 241.557 48.7577C241.559 48.9184 241.56 49.0382 241.561 49.1143C241.561 49.1523 241.561 49.1794 241.561 49.1952C241.561 49.203 241.561 49.2081 241.561 49.2103C241.561 49.2113 241.561 49.2117 241.561 49.2113C241.561 49.2112 241.561 49.2103 241.561 49.2103C241.561 49.2093 241.561 49.2081 249.561 49.208C257.561 49.2079 257.561 49.2063 257.561 49.2046C257.561 49.2038 257.561 49.2019 257.561 49.2002C257.561 49.1969 257.561 49.1929 257.561 49.1881C257.561 49.1785 257.561 49.166 257.561 49.1506C257.561 49.1199 257.561 49.0775 257.56 49.024C257.56 48.917 257.558 48.7651 257.556 48.5713C257.552 48.1839 257.543 47.6284 257.525 46.9288C257.491 45.5309 257.421 43.5506 257.283 41.1799C257.009 36.4656 256.457 30.0845 255.33 23.6208C254.226 17.2882 252.471 10.2684 249.526 4.62029C246.689 -0.818033 241.458 -7.24959 232.728 -7.31943L232.6 8.68006ZM151.861 168.074C159.748 166.732 159.748 166.733 159.748 166.733C159.748 166.733 159.748 166.733 159.748 166.733C159.748 166.734 159.748 166.734 159.748 166.733C159.748 166.733 159.748 166.732 159.748 166.73C159.747 166.727 159.746 166.721 159.745 166.713C159.742 166.696 159.738 166.67 159.731 166.633C159.719 166.56 159.701 166.449 159.677 166.302C159.629 166.009 159.56 165.578 159.476 165.038C159.309 163.956 159.085 162.449 158.863 160.753C158.402 157.244 158 153.34 158 150.678H142C142 154.465 142.529 159.26 142.999 162.836C143.241 164.682 143.483 166.315 143.665 167.487C143.756 168.074 143.832 168.548 143.886 168.879C143.913 169.045 143.934 169.175 143.949 169.265C143.957 169.31 143.963 169.346 143.967 169.371C143.969 169.383 143.971 169.393 143.972 169.401C143.973 169.404 143.973 169.407 143.974 169.41C143.974 169.411 143.974 169.412 143.974 169.413C143.974 169.413 143.974 169.414 143.974 169.414C143.974 169.414 143.975 169.415 151.861 168.074ZM158 150.678C158 152.745 156.954 153.671 157.425 153.106C157.7 152.775 158.343 152.145 159.517 151.245C161.827 149.474 165.133 147.455 168.733 145.476C172.275 143.529 175.848 141.757 178.556 140.463C179.904 139.819 181.025 139.3 181.804 138.944C182.193 138.766 182.496 138.63 182.699 138.539C182.8 138.493 182.876 138.46 182.925 138.438C182.949 138.427 182.967 138.419 182.978 138.414C182.983 138.412 182.987 138.41 182.989 138.409C182.99 138.409 182.99 138.409 182.99 138.409C182.99 138.409 182.99 138.409 182.99 138.409C182.989 138.409 182.989 138.409 179.758 131.091C176.527 123.772 176.526 123.773 176.526 123.773C176.525 123.773 176.524 123.774 176.523 123.774C176.521 123.775 176.519 123.776 176.517 123.777C176.511 123.779 176.504 123.782 176.495 123.786C176.477 123.794 176.452 123.805 176.42 123.82C176.357 123.848 176.266 123.889 176.149 123.941C175.915 124.046 175.579 124.198 175.155 124.392C174.306 124.779 173.102 125.337 171.661 126.025C168.789 127.397 164.923 129.312 161.025 131.455C157.186 133.566 153.052 136.041 149.783 138.547C148.166 139.786 146.485 141.241 145.133 142.863C143.976 144.251 142 146.998 142 150.678H158ZM175.814 138.051C175.666 137.967 174.769 137.324 174.415 135.951C174.131 134.849 174.484 134.326 174.266 134.879C173.757 136.17 172.091 138.563 168.797 142.006C162.254 148.846 153.464 155.777 146.467 162.166L157.256 173.981C162.898 168.829 173.427 160.312 180.358 153.067C183.801 149.468 187.411 145.16 189.15 140.75C190.057 138.452 190.778 135.328 189.909 131.957C188.97 128.316 186.535 125.736 183.702 124.131L175.814 138.051Z" fill="black" mask="url(#path-1-inside-1_16_71)"/>
</svg>
