<svg width="336" height="506" viewBox="0 0 336 506" fill="none" xmlns="http://www.w3.org/2000/svg">
<path d="M167.813 4.00171L167.827 4.0018L167.84 4.00179C204.045 3.99399 229.316 28.1992 238.505 57.8591C247.71 87.5685 240.551 122.016 212.48 142.235L207.768 145.629L212.619 148.822L268.914 185.867C268.625 196.292 266.19 204.884 261.488 214.084H212.693H208.476L208.699 218.295C211.601 273.241 242.255 309.424 271.641 344.112C272.122 344.68 272.603 345.247 273.084 345.815C303.086 381.243 331.276 415.4 331.276 467.479C331.276 471.348 328.013 475.864 319.048 480.5C310.377 484.983 297.718 488.84 282.157 491.968C251.108 498.211 209.529 501.358 167.818 501.357C126.107 501.356 84.5283 498.206 53.4796 491.964C37.9189 488.835 25.2592 484.978 16.5884 480.495C7.62279 475.861 4.36055 471.346 4.36055 467.479V467.471L4.36052 467.463C4.15334 416.101 32.1405 381.968 62.0687 346.356C62.5256 345.813 62.9828 345.269 63.4404 344.724C92.7694 309.838 123.482 273.307 126.624 218.313L126.866 214.084H122.631H73.8781C69.1748 204.881 66.7398 196.287 66.4518 185.858L122.758 148.523L127.596 145.315L122.876 141.936C94.7216 121.785 87.6313 87.3048 96.9338 57.5911C106.221 27.925 131.615 3.76663 167.813 4.00171Z" fill="#EEEED2" stroke="black" stroke-width="8"/>
</svg>
