<svg width="568" height="500" viewBox="0 0 568 500" fill="none" xmlns="http://www.w3.org/2000/svg">
<path d="M563.382 114.209V114.217C563.391 118.864 562.244 123.44 560.044 127.533C557.844 131.627 554.66 135.109 550.779 137.665C546.899 140.222 542.443 141.773 537.814 142.179C533.185 142.585 528.527 141.833 524.26 139.991L520.534 138.382L518.98 142.132L440.232 332.092H126.801L48.1172 142.222L46.5789 138.51L42.8739 140.065C36.5707 142.71 29.5177 142.96 23.0432 140.767C16.5687 138.574 11.1194 134.089 7.72159 128.157C4.3238 122.226 3.21197 115.256 4.59547 108.562C5.97898 101.868 9.76235 95.9099 15.2331 91.8111C20.7038 87.7122 27.4844 85.755 34.2979 86.308C41.1114 86.861 47.4877 89.8861 52.2258 94.8135C56.964 99.7409 59.7371 106.231 60.0229 113.061C60.3087 119.891 58.0876 126.589 53.7777 131.895L51.2651 134.989L54.3492 137.513L165.764 228.694L171.115 233.073L172.244 226.252L199.035 64.3794L199.681 60.4787L195.788 59.7878C189.188 58.6165 183.227 55.118 178.986 49.927C174.746 44.7361 172.507 38.197 172.676 31.4963C172.845 24.7957 175.411 18.3777 179.908 13.4073C184.405 8.43683 190.535 5.24333 197.185 4.40638C203.835 3.56944 210.565 5.14453 216.153 8.84577C221.742 12.547 225.818 18.1291 227.642 24.5789C229.466 31.0287 228.917 37.9187 226.095 43.9985C223.273 50.0782 218.365 54.9446 212.261 57.7146L208.587 59.3819L210.286 63.0412L279.837 212.875L283.466 220.694L287.094 212.875L356.786 62.6563L358.459 59.0506L354.864 57.3551C348.797 54.494 343.959 49.5515 341.227 43.4257C338.495 37.2999 338.052 30.3974 339.978 23.9726C341.903 17.5477 346.07 12.0269 351.721 8.41343C357.371 4.79995 364.131 3.33362 370.771 4.28089C377.411 5.22816 383.491 8.52616 387.905 13.5756C392.32 18.625 394.777 25.0907 394.829 31.7977C394.881 38.5048 392.526 45.0079 388.19 50.1255C383.855 55.2431 377.827 58.6354 371.202 59.686L367.225 60.3168L367.883 64.2899L394.686 226.188L395.815 233.003L401.164 228.632L512.912 137.323L515.98 134.816L513.502 131.724C510.703 128.23 508.782 124.116 507.899 119.727C507.017 115.337 507.2 110.8 508.432 106.496C509.664 102.192 511.91 98.2457 514.981 94.988C518.052 91.7304 521.859 89.2562 526.084 87.7728C530.308 86.2895 534.826 85.8401 539.26 86.4623C543.694 87.0846 547.914 88.7604 551.566 91.3493C555.219 93.9382 558.198 97.3649 560.254 101.342C562.31 105.319 563.382 109.731 563.382 114.209ZM95.4213 496V427.162H471.612V496H95.4213ZM131.317 398.672V360.569H436.074V398.672H131.317Z" fill="#EEEED2" stroke="black" stroke-width="8"/>
</svg>
