<svg width="408" height="500" viewBox="0 0 408 500" fill="none" xmlns="http://www.w3.org/2000/svg">
<path d="M376.43 190.195L376.421 190.202L376.411 190.21L326.411 230.21L324.705 231.575L324.932 233.748L340.097 379.333H67.7235L82.8886 233.748L83.115 231.575L81.4089 230.21L31.4089 190.21L31.3995 190.202L31.39 190.195C24.5032 184.753 20.4102 176.047 20.4102 166.667V16.6667C20.4102 9.46204 25.8898 4 32.0352 4H94.5352C100.681 4 106.16 9.46204 106.16 16.6667V58.3333C106.16 64.8787 111.227 70.6667 117.973 70.6667H149.223C155.968 70.6667 161.035 64.8787 161.035 58.3333V16.6667C161.035 9.46204 166.515 4 172.66 4H235.16C241.306 4 246.785 9.46204 246.785 16.6667V58.3333C246.785 64.8787 251.852 70.6667 258.598 70.6667H289.848C296.593 70.6667 301.66 64.8787 301.66 58.3333V16.6667C301.66 9.46204 307.14 4 313.285 4H375.785C381.931 4 387.41 9.46204 387.41 16.6667V166.667C387.41 176.047 383.317 184.753 376.43 190.195ZM188.285 270.667H219.535C230.577 270.667 239.16 261.129 239.16 250V200C239.16 179.6 223.644 162.667 203.91 162.667C184.177 162.667 168.66 179.6 168.66 200V250C168.66 261.129 177.243 270.667 188.285 270.667ZM10.1486 462.527L49.3931 420.667H358.427L397.672 462.527C401.05 466.131 403.035 471.182 403.035 476.458C403.035 487.517 394.723 496 384.965 496H22.8555C13.0968 496 4.78516 487.517 4.78516 476.458C4.78516 471.182 6.77044 466.131 10.1486 462.527Z" fill="#EEEED2" stroke="black" stroke-width="8"/>
</svg>
